HIERARCHY
ROOT Hips
{
    OFFSET 0.000000 0.000000 0.000000
    CHANNELS 6 Xposition Yposition Zposition Zrotation Xrotation Yrotation
    JOINT Spine
    {
        OFFSET -0.000000 14.517291 0.000000
        CHANNELS 3 Zrotation Xrotation Yrotation
        JOINT Spine1
        {
            OFFSET -0.000000 37.558300 0.000000
            CHANNELS 3 Zrotation Xrotation Yrotation
            JOINT Neck
            {
                OFFSET -0.000000 37.404057 3.400369
                CHANNELS 3 Zrotation Xrotation Yrotation
                JOINT Head
                {
                    OFFSET -0.000000 24.785618 -3.540803
                    CHANNELS 3 Zrotation Xrotation Yrotation
                    End Site
                    {
                        OFFSET -0.000000 35.408028 0.000000
                    }
                }
            }
            JOINT LeftShoulder
            {
                OFFSET 6.992933 33.973492 -0.192664
                CHANNELS 3 Zrotation Xrotation Yrotation
                JOINT LeftArm
                {
                    OFFSET 21.527611 0.000000 0.000000
                    CHANNELS 3 Zrotation Xrotation Yrotation
                    JOINT LeftForeArm
                    {
                        OFFSET 56.353916 0.000000 0.000000
                        CHANNELS 3 Zrotation Xrotation Yrotation
                        JOINT LeftHand
                        {
                            OFFSET 47.774071 0.000000 0.000000
                            CHANNELS 3 Zrotation Xrotation Yrotation
                            End Site
                            {
                                OFFSET 26.556021 0.000000 0.000000
                            }
                        }
                    }
                }
            }
            JOINT RightShoulder
            {
                OFFSET -7.065357 33.973492 -0.192664
                CHANNELS 3 Zrotation Xrotation Yrotation
                JOINT RightArm
                {
                    OFFSET -21.527611 0.000000 0.000000
                    CHANNELS 3 Zrotation Xrotation Yrotation
                    JOINT RightForeArm
                    {
                        OFFSET -56.353916 0.000000 0.000000
                        CHANNELS 3 Zrotation Xrotation Yrotation
                        JOINT RightHand
                        {
                            OFFSET -47.774071 0.000000 0.000000
                            CHANNELS 3 Zrotation Xrotation Yrotation
                            End Site
                            {
                                OFFSET -26.556021 0.000000 0.000000
                            }
                        }
                    }
                }
            }
        }
    }
    JOINT LeftUpLeg
    {
        OFFSET 17.704014 0.000000 0.000000
        CHANNELS 3 Zrotation Xrotation Yrotation
        JOINT LeftLeg
        {
            OFFSET -0.000000 -81.181816 0.000000
            CHANNELS 3 Zrotation Xrotation Yrotation
            JOINT LeftFoot
            {
                OFFSET -0.000000 -62.821102 0.000000
                CHANNELS 3 Zrotation Xrotation Yrotation
                JOINT LeftToeBase
                {
                    OFFSET -0.000000 -11.507608 26.556021
                    CHANNELS 3 Zrotation Xrotation Yrotation
                    End Site
                    {
                        OFFSET -0.000000 0.000000 7.081605
                    }
                }
            }
        }
    }
    JOINT RightUpLeg
    {
        OFFSET -17.704014 0.000000 0.000000
        CHANNELS 3 Zrotation Xrotation Yrotation
        JOINT RightLeg
        {
            OFFSET -0.000000 -81.181816 0.000000
            CHANNELS 3 Zrotation Xrotation Yrotation
            JOINT RightFoot
            {
                OFFSET -0.000000 -62.821102 0.000000
                CHANNELS 3 Zrotation Xrotation Yrotation
                JOINT RightToeBase
                {
                    OFFSET -0.000000 -11.507608 26.556021
                    CHANNELS 3 Zrotation Xrotation Yrotation
                    End Site
                    {
                        OFFSET -0.000000 0.000000 7.081605
                    }
                }
            }
        }
    }
}
MOTION
Frames:    11
Frame Time:    0.008333
-0.489456    150.942154    -76.831139    2.629488    -4.447297    47.395985    -2.294752    2.630289    -0.882843    -1.803523    2.133479    -0.277742    0.959756    9.249414    -19.916584    14.034958    -7.426194    -17.989477    0.591514    9.590842    -13.288908    -36.123299    21.452051    -42.108589    -4.328990    -30.780087    -120.271904    -12.843496    -35.947334    -12.065034    0.467326    11.436933    -5.719496    29.299606    15.939986    44.463799    -2.289805    12.103689    36.569923    -18.111877    6.865129    36.734669    18.099934    -9.186537    -9.581710    -14.286710    42.554234    -26.516865    6.645286    -28.863361    43.730362    0.000000    0.000000    0.000000    -17.862864    -18.265921    11.617140    8.099480    30.986292    -3.866429    12.836880    -8.611859    -12.367107    0.000000    0.000000    0.000000    
-0.477688    150.937485    -76.877861    2.617703    -4.468156    47.387905    -2.266870    2.625789    -0.895383    -1.805686    2.129563    -0.281853    0.965852    9.247008    -19.906315    14.015913    -7.415204    -17.984230    0.587075    9.607634    -13.289832    -36.148212    21.456640    -42.103710    -4.346340    -30.747524    -120.286064    -12.858856    -35.942245    -12.057681    0.466754    11.449873    -5.728129    29.311525    15.934484    44.445637    -2.141570    11.674107    36.789703    -17.666483    6.696474    35.797688    18.098967    -9.220056    -9.578529    -14.295848    42.627354    -26.506462    6.678618    -28.858795    43.740246    0.000000    0.000000    0.000000    -17.887833    -18.238775    11.586790    8.134962    30.902090    -3.862236    12.832667    -8.564720    -12.347424    0.000000    0.000000    0.000000    
-0.463190    150.932770    -76.929947    2.601281    -4.485810    47.371181    -2.238632    2.609956    -0.903799    -1.804555    2.137029    -0.284231    0.945903    9.234779    -19.897802    14.026840    -7.390785    -17.974844    0.581461    9.619287    -13.279292    -36.164845    21.459391    -42.108639    -4.363887    -30.702181    -120.295425    -12.857803    -35.927101    -12.043039    0.462534    11.452640    -5.728143    29.330946    15.915437    44.424740    -2.140342    11.683452    36.788334    -17.632261    6.717378    35.794098    18.095009    -9.257142    -9.577136    -14.306613    42.701180    -26.494204    6.700216    -28.869127    43.766804    0.000000    0.000000    0.000000    -17.909607    -18.216938    11.562955    8.164364    30.809483    -3.876628    12.833279    -8.508479    -12.320050    0.000000    0.000000    0.000000    
-0.418216    150.924744    -76.992645    2.578165    -4.502699    47.362354    -2.180411    2.561341    -0.919547    -1.811261    2.175466    -0.287964    0.925422    9.216612    -19.891489    14.009375    -7.377152    -17.972128    0.558499    9.628917    -13.278454    -36.191898    21.445347    -42.099216    -4.381303    -30.640507    -120.302414    -12.886889    -35.892738    -12.037679    0.432038    11.449986    -5.746819    29.345036    15.918111    44.419998    -2.157008    11.700265    36.784435    -17.626076    6.737479    35.820251    18.080711    -9.298315    -9.631327    -14.351638    42.776257    -26.466139    6.763427    -28.889776    43.838676    0.000000    0.000000    0.000000    -17.950233    -18.176352    11.508271    8.195646    30.684483    -3.888997    12.794573    -8.454277    -12.268249    0.000000    0.000000    0.000000    
-0.400277    150.921234    -77.064476    2.563084    -4.519998    47.344879    -2.138429    2.553798    -0.930149    -1.833631    2.182363    -0.290585    0.942163    9.221987    -19.877388    13.996377    -7.409865    -17.957054    0.566938    9.639076    -13.266542    -36.193718    21.460833    -42.113796    -4.397084    -30.616482    -120.310547    -12.870517    -35.894768    -12.040147    0.437405    11.424915    -5.744679    29.343424    15.930880    44.387489    -2.160064    11.692594    36.784988    -17.594227    6.746704    35.787857    18.064548    -9.340736    -9.637366    -14.366909    42.854736    -26.429890    6.787761    -28.898260    43.860336    0.000000    0.000000    0.000000    -17.976948    -18.149149    11.455651    8.198104    30.578411    -3.904951    12.806533    -8.377080    -12.200267    0.000000    0.000000    0.000000    
-0.376919    150.917572    -77.152641    2.551963    -4.541070    47.317585    -2.098688    2.559740    -0.933872    -1.842475    2.186047    -0.291419    0.833569    9.169464    -19.868320    14.138483    -7.302873    -17.925312    0.574244    9.651662    -13.254374    -36.206100    21.442726    -42.137642    -4.413167    -30.559786    -120.304420    -12.869349    -35.863754    -12.038362    0.438284    11.582527    -5.879251    29.235439    15.901385    44.631393    -2.192601    11.636067    36.694576    -17.558455    6.706596    35.807701    18.043690    -9.378989    -9.672413    -14.410958    42.934387    -26.383028    6.831182    -28.910349    43.908916    0.000000    0.000000    0.000000    -18.006369    -18.121502    11.391300    8.195186    30.466816    -3.906440    12.814053    -8.283581    -12.143794    0.000000    0.000000    0.000000    
-0.345672    150.910156    -77.255341    2.542547    -4.549709    47.274513    -2.063360    2.553890    -0.923497    -1.839228    2.190663    -0.287580    0.820919    9.164690    -19.860464    14.114669    -7.327070    -17.918056    0.553237    9.663045    -13.264222    -36.179455    21.471146    -42.151672    -4.397110    -30.600014    -120.288269    -12.870249    -35.876900    -12.035068    0.411572    11.599641    -5.884556    29.231186    15.856412    44.629433    -2.168854    11.660032    36.667038    -17.601604    6.703624    35.834930    17.998083    -9.428576    -9.669574    -14.426597    43.025333    -26.342052    6.982841    -28.851835    43.970055    0.000000    0.000000    0.000000    -18.054308    -18.109732    11.312091    8.188452    30.355804    -3.868927    12.801704    -8.187552    -12.107667    0.000000    0.000000    0.000000    
-0.316114    150.905426    -77.371269    2.532377    -4.564887    47.212765    -2.007790    2.571072    -0.901338    -1.864938    2.173357    -0.279699    0.832502    9.167478    -19.848345    14.076078    -7.364696    -17.909222    0.549605    9.663026    -13.274868    -36.167648    21.490957    -42.158024    -4.390502    -30.616909    -120.277176    -12.864969    -35.883450    -12.023651    0.407679    11.607676    -5.893148    29.204626    15.834043    44.622128    -2.157681    11.679873    36.642300    -17.619328    6.706957    35.874622    17.954170    -9.466352    -9.652038    -14.433030    43.126205    -26.316277    7.037053    -28.868498    44.031200    0.000000    0.000000    0.000000    -18.092285    -18.104080    11.272272    8.191759    30.236238    -3.838773    12.792855    -8.078189    -12.073172    0.000000    0.000000    0.000000    
-0.290029    150.902313    -77.491249    2.516321    -4.569134    47.147369    -1.967889    2.563152    -0.885067    -1.898329    2.174732    -0.273308    0.890920    9.166488    -19.835220    14.012107    -7.407048    -17.907021    0.582608    9.674238    -13.280473    -36.134937    21.540205    -42.200134    -4.345681    -30.710392    -120.240326    -12.897104    -35.899094    -12.038941    0.414151    11.579804    -5.869528    29.191875    15.821818    44.570408    -2.148473    11.689606    36.628376    -17.647463    6.696664    35.919155    17.903240    -9.519169    -9.624475    -14.425352    43.234493    -26.296747    7.098093    -28.869226    44.080994    0.000000    0.000000    0.000000    -18.126162    -18.109766    11.242136    8.183630    30.121489    -3.786528    12.813394    -7.983213    -12.055240    0.000000    0.000000    0.000000    
-0.259058    150.895905    -77.607773    2.502199    -4.580572    47.085213    -1.949811    2.556221    -0.871669    -1.888537    2.181387    -0.268628    0.939393    9.149961    -19.815758    13.927901    -7.428890    -17.904175    0.605686    9.672951    -13.282914    -36.143227    21.542259    -42.222332    -4.344045    -30.697920    -120.217903    -12.874299    -35.883530    -12.046290    0.413448    11.552396    -5.861513    29.151894    15.826356    44.541866    -2.336875    12.128948    36.437767    -17.996918    6.927586    36.818298    17.851566    -9.573863    -9.546108    -14.367959    43.374413    -26.341412    7.159081    -28.870148    44.132763    0.000000    0.000000    0.000000    -18.157255    -18.101803    11.221862    8.180027    29.999514    -3.696852    12.755772    -7.919487    -12.084083    0.000000    0.000000    0.000000    
-0.218359    150.883194    -77.746735    2.499729    -4.594801    47.005432    -1.917356    2.570499    -0.844193    -1.892755    2.178915    -0.259227    1.087827    9.166563    -19.782118    13.696182    -7.567930    -17.908632    0.610016    9.663635    -13.302617    -36.119827    21.573103    -42.235401    -4.329381    -30.748941    -120.201233    -12.863963    -35.910759    -12.035238    0.411623    11.547410    -5.860415    29.089016    15.854011    44.537876    -2.403029    12.074231    36.416538    -17.948128    6.908868    36.823029    17.789465    -9.611485    -9.560713    -14.402070    43.483124    -26.269283    7.240520    -28.872915    44.197086    0.000000    0.000000    0.000000    -18.194866    -18.096441    11.235051    8.172580    29.880627    -3.610560    12.750122    -7.848964    -12.108750    0.000000    0.000000    0.000000    
